<svg id="clock_1_" data-name="clock (1)" xmlns="http://www.w3.org/2000/svg" width="47.5" height="47.5" viewBox="0 0 47.5 47.5">
  <g id="Group_130" data-name="Group 130">
    <g id="Group_129" data-name="Group 129">
      <path id="Path_101" data-name="Path 101" d="M23.75,0A23.75,23.75,0,1,0,47.5,23.75,23.75,23.75,0,0,0,23.75,0Zm1.019,45.411V41.234a1.019,1.019,0,0,0-2.038,0v4.177A21.7,21.7,0,0,1,2.089,24.769H6.266a1.019,1.019,0,0,0,0-2.038H2.089A21.7,21.7,0,0,1,22.731,2.089V6.266a1.019,1.019,0,0,0,2.038,0V2.089A21.7,21.7,0,0,1,45.411,22.731H41.234a1.019,1.019,0,0,0,0,2.038h4.188A21.7,21.7,0,0,1,24.769,45.411Z" fill="#f97029"/>
    </g>
  </g>
  <g id="Group_132" data-name="Group 132" transform="translate(22.731 12.033)">
    <g id="Group_131" data-name="Group 131">
      <path id="Path_102" data-name="Path 102" d="M190.248,115.673l-9.73-9.893V95.5a1.019,1.019,0,1,0-2.038,0v10.7a1.019,1.019,0,0,0,.3.713L188.791,117.1a1.02,1.02,0,1,0,1.457-1.426Z" transform="translate(-178.48 -94.48)" fill="#f97029"/>
    </g>
  </g>
</svg>
