<svg xmlns="http://www.w3.org/2000/svg" xmlns:xlink="http://www.w3.org/1999/xlink" width="37.585" height="45.707" viewBox="0 0 37.585 45.707">
  <defs>
    <clipPath id="clip-path">
      <rect width="37.585" height="45.707" fill="none"/>
    </clipPath>
  </defs>
  <g id="report" transform="translate(0 0)" clip-path="url(#clip-path)">
    <g id="report-2" data-name="report" transform="translate(-0.5 0)">
      <path id="Path_103" data-name="Path 103" d="M163.589,197.689h11.629a.675.675,0,0,0,0-1.349H163.589a.675.675,0,1,0,0,1.349Zm0,0" transform="translate(-147.915 -178.812)" fill="#f97029"/>
      <path id="Path_104" data-name="Path 104" d="M178.54,160.008H163.589a.675.675,0,1,0,0,1.349H178.54a.675.675,0,1,0,0-1.349Zm0,0" transform="translate(-147.915 -145.724)" fill="#f97029"/>
      <path id="Path_105" data-name="Path 105" d="M70.188,151.31a.675.675,0,0,0-.953.052l-3.166,3.526-1.37-1.266a.675.675,0,0,0-.916.991l1.873,1.73a.675.675,0,0,0,.458.179h.032a.673.673,0,0,0,.47-.223l3.623-4.035A.675.675,0,0,0,70.188,151.31Zm0,0" transform="translate(-57.437 -137.645)" fill="#f97029"/>
      <path id="Path_106" data-name="Path 106" d="M74.031,224a.675.675,0,0,0-.953.052l-3.111,3.466-1-1.151a.675.675,0,1,0-1.02.883l1.5,1.731a.674.674,0,0,0,.5.233h.006a.676.676,0,0,0,.5-.224l3.623-4.035a.675.675,0,0,0-.052-.953Zm0,0" transform="translate(-61.279 -203.848)" fill="#f97029"/>
      <path id="Path_107" data-name="Path 107" d="M163.589,270.381h11.629a.675.675,0,0,0,0-1.349H163.589a.675.675,0,1,0,0,1.349Zm0,0" transform="translate(-147.915 -245.015)" fill="#f97029"/>
      <path id="Path_108" data-name="Path 108" d="M272.348,233.374a.675.675,0,0,0-.675-.675h-5.822a.675.675,0,1,0,0,1.349h5.822A.675.675,0,0,0,272.348,233.374Zm0,0" transform="translate(-241.048 -211.926)" fill="#f97029"/>
      <path id="Path_109" data-name="Path 109" d="M163.589,234.049h6.04a.675.675,0,0,0,0-1.349h-6.04a.675.675,0,1,0,0,1.349Zm0,0" transform="translate(-147.915 -211.926)" fill="#f97029"/>
      <path id="Path_110" data-name="Path 110" d="M38.081,10.14c0-.011,0-.022,0-.033s0-.044,0-.065c-.036-1.978-.286-2.74-1.962-4.561L33.192,2.3c-.167-.181-.317-.348-.454-.5C31.511.432,31.021,0,28.871,0H3.427A2.931,2.931,0,0,0,.5,2.929v16.1a.675.675,0,0,0,1.349,0V2.929a1.581,1.581,0,0,1,1.578-1.58H28.2l0,6.5a2.931,2.931,0,0,0,2.927,2.93h5.615v32a1.581,1.581,0,0,1-1.578,1.58H3.427a1.581,1.581,0,0,1-1.578-1.58V22.118a.675.675,0,0,0-1.349,0v20.66a2.931,2.931,0,0,0,2.927,2.929H35.158a2.931,2.931,0,0,0,2.927-2.929V10.888c0-.269,0-.516,0-.748Zm-6.96-.708a1.582,1.582,0,0,1-1.578-1.579l0-6.487c1.049.064,1.3.346,2.189,1.332.141.157.294.327.465.513l2.925,3.183c1.21,1.314,1.511,1.848,1.587,3.038h-5.59Zm0,0" transform="translate(0 0)" fill="#f97029"/>
      <path id="Path_111" data-name="Path 111" d="M265.22,350.424a.786.786,0,0,0-.266.243,1.744,1.744,0,0,0-.167.329c-.038.1-.078.205-.119.306l-1.165,2.96c-.038.1-.076.193-.106.291a.782.782,0,0,0-.038.243.559.559,0,0,0,.184.41.6.6,0,0,0,.422.172.508.508,0,0,0,.43-.187,2.2,2.2,0,0,0,.24-.5l.177-.476h1.62l.18.468v0c.035.084.071.167.106.248a1.287,1.287,0,0,0,.134.24.6.6,0,0,0,.187.152.585.585,0,0,0,.263.055.6.6,0,0,0,.437-.18.573.573,0,0,0,.18-.41,1.7,1.7,0,0,0-.152-.552l-1.19-2.942c-.043-.117-.091-.235-.139-.354a1.488,1.488,0,0,0-.152-.278.78.78,0,0,0-.26-.238.812.812,0,0,0-.407-.1A.784.784,0,0,0,265.22,350.424Zm.842,2.76h-.885l.44-1.222Zm0,0" transform="translate(-239.393 -319.054)" fill="#f97029"/>
      <path id="Path_112" data-name="Path 112" d="M222.641,320.7a6.031,6.031,0,1,0,6.032-6.036A6.039,6.039,0,0,0,222.641,320.7Zm10.712,0a4.681,4.681,0,1,1-4.68-4.686A4.687,4.687,0,0,1,233.353,320.7Zm0,0" transform="translate(-202.31 -286.57)" fill="#f97029"/>
    </g>
  </g>
</svg>
