<svg xmlns="http://www.w3.org/2000/svg" width="49.94" height="47.846" viewBox="0 0 49.94 47.846">
  <path id="star" d="M48.856,22.731a3.582,3.582,0,0,0-1.986-6.109L34.778,14.865A1.579,1.579,0,0,1,33.588,14L28.182,3.043a3.582,3.582,0,0,0-6.423,0L16.352,14a1.581,1.581,0,0,1-1.191.865L3.069,16.623a3.581,3.581,0,0,0-1.985,6.108l8.749,8.528a1.583,1.583,0,0,1,.456,1.4L8.224,44.7a3.581,3.581,0,0,0,5.2,3.775l10.814-5.686a1.583,1.583,0,0,1,1.472,0l10.815,5.686a3.581,3.581,0,0,0,5.2-3.775L39.651,32.66a1.582,1.582,0,0,1,.456-1.4ZM37.681,33,39.746,45.04a1.582,1.582,0,0,1-2.294,1.668L26.637,41.021a3.582,3.582,0,0,0-3.334,0L12.49,46.708a1.582,1.582,0,0,1-2.3-1.668L12.26,33a3.581,3.581,0,0,0-1.03-3.17L2.48,21.3a1.582,1.582,0,0,1,.876-2.7l12.091-1.757a3.576,3.576,0,0,0,2.7-1.959L23.551,3.928a1.582,1.582,0,0,1,2.837,0l5.407,10.957a3.575,3.575,0,0,0,2.7,1.959L46.583,18.6a1.582,1.582,0,0,1,.876,2.7L38.71,29.827A3.58,3.58,0,0,0,37.681,33Z" transform="translate(0 -1.047)" fill="#f97936"/>
</svg>
