<svg xmlns="http://www.w3.org/2000/svg" width="42.278" height="47.5" viewBox="0 0 42.278 47.5">
  <g id="user" transform="translate(95.246 211)">
    <g id="Group_128" data-name="Group 128" transform="translate(-95.246 -211)">
      <g id="Group_127" data-name="Group 127" transform="translate(0)">
        <path id="Path_97" data-name="Path 97" d="M255.644,291.873h-11.69l2.945-2.945a.824.824,0,1,0-1.166-1.166l-4.353,4.353a.824.824,0,0,0,0,1.166l4.353,4.353a.824.824,0,1,0,1.166-1.166l-2.945-2.945h11.69a.824.824,0,0,0,0-1.649Z" transform="translate(-217.244 -255.915)" fill="#f97029"/>
        <path id="Path_98" data-name="Path 98" d="M102.132,23.081c2.634,0,5.206-1.6,7.242-4.5a15.457,15.457,0,0,0,2.87-8.469,10.112,10.112,0,1,0-20.223,0,15.456,15.456,0,0,0,2.87,8.469C96.926,21.483,99.5,23.081,102.132,23.081Zm0-21.432a8.472,8.472,0,0,1,8.463,8.463,13.953,13.953,0,0,1-2.571,7.522c-1.694,2.414-3.841,3.8-5.892,3.8s-4.2-1.384-5.892-3.8a13.954,13.954,0,0,1-2.571-7.522A8.472,8.472,0,0,1,102.132,1.649Z" transform="translate(-84.516)" fill="#f97029"/>
        <path id="Path_99" data-name="Path 99" d="M209.872,387.621c-.009-.02-.007-.015,0-.006a.813.813,0,0,0-.176-.261.824.824,0,1,0,.18.271C209.878,387.635,209.881,387.643,209.872,387.621Z" transform="translate(-188.005 -344.562)" fill="#f97029"/>
        <path id="Path_100" data-name="Path 100" d="M55.314,197.243c-.08,0-.16,0-.239,0a17.743,17.743,0,0,0-6.142-4.848.825.825,0,0,0-.937.161,9.407,9.407,0,0,1-6.628,3.028,9.4,9.4,0,0,1-6.626-3.028.824.824,0,0,0-.937-.161A17.615,17.615,0,0,0,23.754,208.31v.014a.825.825,0,0,0,.271.611,25.768,25.768,0,0,0,17.345,6.69c.339,0,.683-.007,1.02-.02a.824.824,0,1,0-.064-1.648c-.316.012-.637.018-.956.018a24.122,24.122,0,0,1-15.963-6.018,15.965,15.965,0,0,1,8.6-13.82,10.824,10.824,0,0,0,7.361,3.1,10.829,10.829,0,0,0,7.361-3.1,16.1,16.1,0,0,1,4.363,3.336,10.72,10.72,0,1,0,2.221-.232Zm0,19.786a9.069,9.069,0,1,1,9.069-9.069A9.079,9.079,0,0,1,55.314,217.029Z" transform="translate(-23.754 -171.178)" fill="#f97029"/>
      </g>
    </g>
  </g>
</svg>
